<?xml version="1.0" encoding="iso-8859-1"?>
<!-- Generator: Adobe Illustrator 18.1.1, SVG Export Plug-In . SVG Version: 6.00 Build 0)  -->
<svg version="1.1" id="Capa_1" xmlns="http://www.w3.org/2000/svg" xmlns:xlink="http://www.w3.org/1999/xlink" x="0px" y="0px"
	 viewBox="0 0 33.251 33.251" style="enable-background:new 0 0 33.251 33.251;" xml:space="preserve">
<g>
	<path d="M5.502,20.988l-0.764-2.389H4.129c0-2.389,0-15.618,0-16.512c0,0,0.135-0.76-0.654-0.76c-0.668,0-0.569,0.76-0.569,0.76
		v16.512H2.297l-0.764,2.389H0v9.981h1.555v0.955h2.07l0.848-0.955H28.95l0.85,0.955h2.07v-0.955h1.381v-9.981H5.502z M31.16,29.235
		H2.42v-6.512h28.74V29.235z"/>
	<rect x="4.121" y="24.068" width="5.379" height="4.034"/>
	<rect x="10.605" y="24.068" width="5.383" height="4.034"/>
	<rect x="17.137" y="24.068" width="5.381" height="4.034"/>
	<path d="M27.729,23.608c-1.311,0-2.369,1.061-2.369,2.37c0,1.311,1.059,2.372,2.369,2.372s2.371-1.062,2.371-2.372
		C30.1,24.668,29.039,23.608,27.729,23.608z M27.729,27.616c-0.885,0-1.604-0.717-1.604-1.602c0-0.886,0.719-1.603,1.604-1.603
		s1.604,0.717,1.604,1.603C29.332,26.898,28.613,27.616,27.729,27.616z"/>
	<g>
	</g>
	<g>
	</g>
	<g>
	</g>
	<g>
	</g>
	<g>
	</g>
	<g>
	</g>
	<g>
	</g>
	<g>
	</g>
	<g>
	</g>
	<g>
	</g>
	<g>
	</g>
	<g>
	</g>
	<g>
	</g>
	<g>
	</g>
	<g>
	</g>
</g>
<g>
</g>
<g>
</g>
<g>
</g>
<g>
</g>
<g>
</g>
<g>
</g>
<g>
</g>
<g>
</g>
<g>
</g>
<g>
</g>
<g>
</g>
<g>
</g>
<g>
</g>
<g>
</g>
<g>
</g>
</svg>
